# xmcd
#
# Track frame offsets:
#	150
#	9574
#	24123
#	43331
#	65672
#	81567
#	99992
#	125156
#	144306
#	163505
#	184145
#	201414
#	221768
#	233972
#	255819
#	274779
#
# Disc length: 3822
#
# Revision: 1
# Processed by: cddbd v1.5.1PL0 Copyright (c) Steve Scherf et al.
# Submitted via: dBpowerAMP V4.0
# Normalized: r0:TRMNUM
#
DISCID=e60eec10
DTITLE=Destiny's Child - The Writing's On The Wall
DYEAR=1999
DGENRE=Soul
TTITLE0=Intro - (The writings' on the wall) 
TTITLE1=So good 
TTITLE2=Bills, bills, bills 
TTITLE3=Confessions (feat. Missy Elliott) 
TTITLE4=Bug a boo 
TTITLE5=Temptation 
TTITLE6=Now that she's gone 
TTITLE7=Where'd you go 
TTITLE8=Hey ladies 
TTITLE9=If you leave (feat. Next) 
TTITLE10=Jumpin, jumpin 
TTITLE11=Say my name 
TTITLE12=She can't love you 
TTITLE13=Stay 
TTITLE14=Sweet sixteen 
TTITLE15=Outro - (Amazing Grace. dedicated to Andretta Tillman)
EXTD=
EXTT0=
EXTT1=
EXTT2=
EXTT3=
EXTT4=
EXTT5=
EXTT6=
EXTT7=
EXTT8=
EXTT9=
EXTT10=
EXTT11=
EXTT12=
EXTT13=
EXTT14=
EXTT15=
PLAYORDER=
